<?xml version="1.0" encoding="UTF-8"?>
<svg xmlns="http://www.w3.org/2000/svg" xmlns:xlink="http://www.w3.org/1999/xlink" width="25px" height="39px" viewBox="0 0 25 39" version="1.1">
<g id="surface1">
<path style=" stroke:none;fill-rule:nonzero;fill:rgb(20%,20%,60.000002%);fill-opacity:1;" d="M 8.804688 5.753906 L 9.597656 5.753906 L 9.597656 3.511719 L 8.378906 3.511719 C 5.320312 3.511719 2.835938 5.960938 2.835938 8.980469 L 2.835938 12.054688 L 4.882812 12.054688 L 4.882812 9.625 C 4.882812 7.488281 6.636719 5.753906 8.804688 5.753906 Z M 8.804688 5.753906 "/>
<path style=" stroke:none;fill-rule:nonzero;fill:rgb(20%,20%,60.000002%);fill-opacity:1;" d="M 16.21875 34.535156 L 15.632812 34.535156 L 15.632812 36.851562 L 16.660156 36.851562 C 19.820312 36.851562 22.382812 34.324219 22.382812 31.203125 L 22.367188 17.125 L 20.253906 17.125 L 20.269531 30.535156 C 20.269531 32.746094 18.457031 34.535156 16.21875 34.535156 Z M 16.21875 34.535156 "/>
<path style=" stroke:none;fill-rule:nonzero;fill:rgb(20%,20%,60.000002%);fill-opacity:1;" d="M 9.007812 34.535156 L 9.59375 34.535156 L 9.59375 36.851562 L 8.566406 36.851562 C 5.402344 36.851562 2.839844 34.324219 2.839844 31.203125 L 2.859375 17.125 L 4.96875 17.125 L 4.953125 30.535156 C 4.953125 32.746094 6.769531 34.535156 9.007812 34.535156 Z M 9.007812 34.535156 "/>
<path style=" stroke:none;fill-rule:nonzero;fill:rgb(20%,20%,60.000002%);fill-opacity:1;" d="M 4.628906 15.902344 C 7.171875 15.582031 9.425781 14.230469 11.117188 12.28125 C 12.128906 11.117188 12.714844 10.097656 13.230469 8.65625 C 13.613281 7.570312 13.675781 6.691406 13.722656 6.085938 L 13.722656 2.089844 L 11.277344 2.089844 L 11.277344 6.808594 C 11.277344 10.515625 8.273438 13.265625 4.480469 13.519531 C 3.597656 13.578125 1.304688 13.519531 1.304688 13.519531 L 1.304688 15.929688 C 1.304688 15.929688 3.839844 16 4.628906 15.902344 Z M 4.628906 15.902344 "/>
<path style=" stroke:none;fill-rule:nonzero;fill:rgb(20%,20%,60.000002%);fill-opacity:1;" d="M 20.523438 13.519531 C 17.980469 13.519531 15.769531 12.144531 14.601562 10.105469 C 13.324219 13.148438 10.980469 15.542969 7.894531 16.847656 C 9.917969 18.007812 11.277344 20.167969 11.277344 22.644531 L 11.277344 36.910156 L 13.722656 36.910156 L 13.722656 22.644531 C 13.722656 18.9375 16.765625 15.933594 20.519531 15.933594 L 23.695312 15.933594 L 23.695312 13.519531 Z M 20.523438 13.519531 "/>
<path style=" stroke:none;fill-rule:nonzero;fill:rgb(20%,20%,60.000002%);fill-opacity:1;" d="M 16.09375 5.753906 L 15.300781 5.753906 L 15.300781 3.511719 L 16.519531 3.511719 C 19.582031 3.511719 22.0625 5.960938 22.0625 8.980469 L 22.0625 12.054688 L 20.015625 12.054688 L 20.015625 9.625 C 20.015625 7.488281 18.261719 5.753906 16.09375 5.753906 Z M 16.09375 5.753906 "/>
</g>
</svg>
